<svg width="140" height="43" viewBox="0 0 140 43" fill="none" xmlns="http://www.w3.org/2000/svg">
<g clip-path="url(#clip0)">
<path d="M92.561 20.6297C92.5407 13.7569 92.5205 6.88383 92.5004 0.0105896H85.2893C85.3067 6.88345 85.3253 13.7565 85.3449 20.6297H92.561Z" fill="#F6FFFF"/>
<path d="M70.1332 5.45515C72.4567 5.46909 73.0916 6.24402 73.0938 8.01631C73.0938 9.70052 72.4266 10.4554 70.1387 10.4297C66.2468 10.3868 64.3048 10.3784 60.4157 10.3901V13.7613C64.2064 16.4842 66.1924 17.9153 69.833 20.6298H78.7877C75.9844 18.4706 74.2997 17.2218 71.234 14.98L71.6605 14.9879C76.5954 15.0821 80.2532 12.9809 80.2421 8.1306C80.2304 3.09749 78.1133 0.0117188 71.6405 0.0117188H60.3128V5.43619C64.2397 5.42839 66.204 5.43285 70.1332 5.45515Z" fill="#F6FFFF"/>
<path d="M102.453 12.9803C104.366 13.8723 105.322 14.3339 107.234 15.2839C108.605 15.9668 109.131 16.4591 109.132 16.9006V17.2045C109.132 17.539 108.993 17.8305 107.764 17.7096C103.919 17.331 101.994 17.1621 98.1421 16.8638C98.1465 18.4014 98.1493 19.4423 98.1526 20.6314H116.252C116.321 20.2289 116.355 19.8211 116.352 19.4127V17.2624C116.352 14.1232 114.705 12.0587 111.439 10.4554C109.543 9.53048 108.593 9.0828 106.694 8.21143C105.604 7.6963 105.287 7.4549 105.286 7.05796V6.76082C105.286 6.39677 105.46 6.13753 106.515 6.17265C110.452 6.30478 112.419 6.37725 116.356 6.53893V0.0161743H106.681C100.983 0.0161743 98.1015 1.29285 98.112 5.31243C98.112 6.0015 98.1148 6.34603 98.1165 7.0351C98.1198 9.36211 98.9699 11.3529 102.453 12.9803Z" fill="#F6FFFF"/>
<path d="M39.2898 21.2073C39.2976 18.4337 39.3021 16.8911 39.3099 13.9687C42.8593 13.8137 44.634 13.7513 48.1851 13.656C48.1801 16.5516 48.1773 18.0602 48.1712 20.8433C50.4956 20.7723 52.9048 20.7184 55.399 20.6816C55.4068 13.7909 55.4136 6.90055 55.4196 0.0105896H48.2084C48.2012 3.26862 48.1984 4.89819 48.1923 8.15622C44.6434 8.21197 42.8693 8.25044 39.321 8.34299C39.3299 5.01025 39.3338 3.34333 39.3443 0.0105896H32.1371C32.1156 7.22353 32.095 14.4367 32.0754 21.65C34.3553 21.4879 36.7601 21.3404 39.2898 21.2073Z" fill="#F6FFFF"/>
<path d="M14.2233 23.434C17.6737 22.9757 21.7569 22.5113 26.4816 22.096C26.4872 20.1793 26.4905 19.0035 26.4955 16.8878C23.9508 17.0857 22.6792 17.1939 20.1373 17.428C16.872 17.728 15.7528 16.4334 15.7589 12.1753C15.7645 7.95163 16.5756 6.22839 20.1606 6.11355C22.7059 6.0316 23.9786 5.99369 26.5244 5.924C26.5306 3.55908 26.5339 2.37663 26.5411 0.0111545H19.4701C11.5195 -0.291568 8.62392 5.52372 8.60113 12.7093C8.58501 17.9582 10.2463 22.1467 14.2233 23.434Z" fill="#F6FFFF"/>
<path d="M124.953 20.6297H62.4767C20.398 20.6297 0 25.9159 0 25.9159C41.5321 21.489 83.4152 21.489 124.947 25.9159H128.394V20.6297H124.953Z" fill="#00C1C6"/>
<path d="M48.016 29.5313C48.434 29.4863 48.8542 29.592 49.2015 29.8294C49.5488 30.0668 49.8005 30.4205 49.9114 30.827H50.9889C50.7137 29.3329 49.6189 28.5117 48.016 28.5117C47.5951 28.4991 47.1759 28.5714 46.7834 28.7243C46.3908 28.8771 46.0328 29.1075 45.7306 29.4016C45.4285 29.6957 45.1883 30.0476 45.0242 30.4366C44.8602 30.8255 44.7756 31.2435 44.7756 31.6657C44.7756 32.088 44.8602 32.506 45.0242 32.8949C45.1883 33.2838 45.4285 33.6358 45.7306 33.9299C46.0328 34.224 46.3908 34.4543 46.7834 34.6072C47.1759 34.76 47.5951 34.8323 48.016 34.8198C49.6189 34.8198 50.7137 33.9986 50.9889 32.5039H49.9114C49.8006 32.9106 49.549 33.2643 49.2016 33.5019C48.8543 33.7394 48.434 33.8451 48.016 33.8001C47.7336 33.8047 47.4531 33.7529 47.1909 33.6477C46.9286 33.5425 46.6898 33.386 46.4885 33.1873C46.2872 32.9887 46.1273 32.7518 46.0181 32.4906C45.909 32.2294 45.8528 31.949 45.8528 31.6657C45.8528 31.3825 45.909 31.1021 46.0181 30.8409C46.1273 30.5796 46.2872 30.3428 46.4885 30.1441C46.6898 29.9455 46.9286 29.789 47.1909 29.6838C47.4531 29.5786 47.7336 29.5268 48.016 29.5313Z" fill="#F6FFFF"/>
<path d="M58.8422 28.5117C58.2237 28.5284 57.6237 28.7275 57.1174 29.0843C56.6111 29.441 56.221 29.9395 55.9957 30.5174C55.7705 31.0954 55.7202 31.727 55.8511 32.3335C55.9819 32.9399 56.2882 33.4942 56.7316 33.927C57.175 34.3598 57.7358 34.652 58.3439 34.7669C58.952 34.8818 59.5804 34.8144 60.1505 34.5731C60.7206 34.3318 61.2071 33.9273 61.5491 33.4103C61.8912 32.8932 62.0736 32.2865 62.0736 31.666C62.0908 31.2398 62.0183 30.8147 61.8608 30.4185C61.7034 30.0222 61.4644 29.6636 61.1596 29.3661C60.8548 29.0685 60.4909 28.8387 60.0916 28.6915C59.6924 28.5443 59.2667 28.483 58.8422 28.5117V28.5117ZM58.8422 33.8001C58.4205 33.8033 58.0073 33.6809 57.6551 33.4482C57.3028 33.2156 57.0275 32.8833 56.8639 32.4935C56.7003 32.1037 56.6559 31.674 56.7362 31.2588C56.8166 30.8437 57.0181 30.4618 57.3152 30.1616C57.6124 29.8615 57.9917 29.6566 58.4051 29.573C58.8186 29.4894 59.2475 29.5308 59.6374 29.692C60.0273 29.8531 60.3607 30.1268 60.5953 30.4783C60.8299 30.8297 60.9551 31.2431 60.955 31.666C60.9762 31.9504 60.9362 32.236 60.8377 32.5035C60.7393 32.771 60.5846 33.0142 60.3843 33.2165C60.1839 33.4189 59.9426 33.5757 59.6765 33.6764C59.4105 33.7771 59.126 33.8193 58.8422 33.8001V33.8001Z" fill="#F6FFFF"/>
<path d="M71.4825 32.1326C71.4825 33.2209 70.9644 33.8001 69.8018 33.8001C68.6292 33.8001 68.1127 33.2209 68.1127 32.1326V28.641H67.0007V32.1232C67.0007 33.8431 67.8709 34.8198 69.8012 34.8198C71.7316 34.8198 72.5934 33.8431 72.5934 32.1232V28.641H71.4814L71.4825 32.1326Z" fill="#F6FFFF"/>
<path d="M83.5018 30.7155C83.5018 29.5397 82.8474 28.641 81.2356 28.641H77.9353V34.6905H79.0473V32.7805H81.3974L82.4488 34.6905H83.5691L82.3965 32.572C82.7505 32.4163 83.0472 32.1538 83.2453 31.821C83.4434 31.4882 83.5331 31.1018 83.5018 30.7155V30.7155ZM81.0811 31.7954H79.0467V29.6261H81.0811C81.9512 29.6261 82.3988 29.9372 82.3988 30.7155C82.3988 31.4938 81.9534 31.7954 81.0811 31.7954V31.7954Z" fill="#F6FFFF"/>
<path d="M92.3548 31.1737L91.3902 31.0868C90.6118 31.0087 90.2009 30.808 90.2009 30.2739C90.2009 29.6953 90.6919 29.4277 91.7021 29.4277C92.6067 29.4277 93.1671 29.644 93.3144 30.3263H94.3402C94.2452 28.7798 92.9792 28.5117 91.7549 28.5117C89.8646 28.5117 89.0828 29.1595 89.0828 30.2739C89.0828 31.3544 89.799 31.8729 91.16 32.0022L92.1341 32.0886C92.9436 32.1667 93.3144 32.3562 93.3144 32.9354C93.3144 33.6357 92.7201 33.9033 91.6949 33.9033C90.8147 33.9033 90.1431 33.7132 90.0052 33.0046H88.98C89.0828 34.6029 90.4711 34.8192 91.5992 34.8192H91.6076C93.633 34.8192 94.4431 34.119 94.4431 32.9182C94.4409 31.7781 93.7509 31.3031 92.3548 31.1737Z" fill="#F6FFFF"/>
<path d="M100.122 34.6905H105.207V33.7137H101.234V32.1477H105.034V31.2669H101.234V29.6161H105.207V28.641H100.122V34.6905Z" fill="#F6FFFF"/>
<path d="M114.266 31.1737L113.301 31.0868C112.525 31.0087 112.112 30.808 112.112 30.2739C112.112 29.6953 112.603 29.4277 113.613 29.4277C114.518 29.4277 115.079 29.644 115.226 30.3263H116.251C116.157 28.7798 114.889 28.5117 113.665 28.5117C111.778 28.5117 110.996 29.1595 110.996 30.2739C110.996 31.3544 111.711 31.8729 113.074 32.0022L114.048 32.0886C114.858 32.1667 115.229 32.3562 115.229 32.9354C115.229 33.6357 114.633 33.9033 113.607 33.9033C112.729 33.9033 112.057 33.7132 111.919 33.0046H110.894C110.996 34.6029 112.384 34.8192 113.513 34.8192H113.522C115.547 34.8192 116.357 34.119 116.357 32.9182C116.352 31.7781 115.663 31.3031 114.266 31.1737Z" fill="#F6FFFF"/>
<path d="M126.536 22.2799C126.184 22.568 125.791 22.8002 125.369 22.9685V23.5817C125.791 23.75 126.184 23.9822 126.536 24.2702C127.773 25.3026 129.316 25.8939 130.924 25.9511L131.091 25.9555L136.497 24.937C137.718 24.7065 138.898 24.2956 139.999 23.7177V22.8335C138.898 22.2557 137.718 21.8448 136.497 21.6143L131.091 20.5957L130.924 20.6002C129.316 20.6571 127.773 21.248 126.536 22.2799Z" fill="#F6FFFF"/>
<path d="M132.651 20.8828L132.644 20.8866H132.651V20.8828Z" fill="#F6FFFF"/>
<path d="M131.958 24.5194C132.552 24.5193 133.144 24.4514 133.723 24.317L136.419 23.691C136.487 23.6771 136.55 23.6469 136.603 23.6029V23.6029C136.666 23.5517 136.712 23.4839 136.737 23.4074C136.763 23.3309 136.766 23.2487 136.746 23.1704C136.727 23.0922 136.686 23.021 136.628 22.9651C136.57 22.9092 136.498 22.871 136.419 22.8547L133.723 22.2286C133.145 22.0942 132.552 22.0263 131.958 22.0263V22.0263V24.5194V24.5194Z" fill="#2D0091"/>
<path d="M129.807 22.3519L128.932 22.7577C128.826 22.7952 128.733 22.865 128.668 22.9573C128.603 23.0496 128.568 23.16 128.568 23.2731C128.568 23.3863 128.603 23.4966 128.668 23.5889C128.733 23.6813 128.826 23.751 128.932 23.7885L129.807 24.1944C130.269 24.4085 130.772 24.5194 131.282 24.5194V22.0263C130.772 22.0263 130.269 22.1376 129.807 22.3524L129.807 22.3519Z" fill="#2D0091"/>
<path d="M120.365 21.3545C123.253 21.9834 126.248 21.9069 129.1 21.1315L131.089 20.5913L125.726 19.4517L120.365 21.3545Z" fill="#FF4D1D"/>
<path d="M120.365 25.1917L125.726 27.0923L131.089 25.9527L129.1 25.4125C126.248 24.6371 123.253 24.5606 120.365 25.1895V25.1917Z" fill="#FF4D1D"/>
<path d="M128.635 16.1547C128.557 16.9253 128.764 17.6978 129.216 18.326C129.668 18.9542 130.334 19.3946 131.088 19.5638L131.954 16.8794C132.096 16.5057 132.09 16.092 131.937 15.7226L129.324 9.36154L128.635 16.1547Z" fill="#FF4D1D"/>
<path d="M121.929 3.54791L124.685 14.7107C124.948 15.7757 125.495 16.7484 126.269 17.5239L127.503 18.7615L131.085 19.5655L121.929 3.54791Z" fill="#F6FFFF"/>
<path d="M131.088 26.9819C130.334 27.1511 129.668 27.5916 129.216 28.2199C128.764 28.8482 128.557 29.6208 128.635 30.3916L129.319 37.1847L131.933 30.8231C132.011 30.6317 132.052 30.4268 132.052 30.2199C132.051 30.0307 132.017 29.8432 131.95 29.6663V29.6663L131.083 26.9819H131.088Z" fill="#FF4D1D"/>
<path d="M121.929 42.9994L124.685 31.8366C124.948 30.7717 125.495 29.7989 126.269 29.0235L127.503 27.7858L131.085 26.9819L121.929 42.9994Z" fill="#F6FFFF"/>
</g>
<defs>
<clipPath id="clip0">
<rect width="140" height="43" fill="white"/>
</clipPath>
</defs>
</svg>
